<svg width="18" height="19" viewBox="0 0 18 19" fill="none" xmlns="http://www.w3.org/2000/svg">
<path d="M1.80273 5.7956L9.00003 9.3938L16.1973 5.7956C16.1707 5.337 15.9697 4.90594 15.6356 4.5907C15.3014 4.27547 14.8594 4.09991 14.4 4.1H3.60003C3.14066 4.09991 2.69864 4.27547 2.36449 4.5907C2.03035 4.90594 1.82938 5.337 1.80273 5.7956Z" fill="black"/>
<path d="M16.2 7.8062L9.00005 11.4062L1.80005 7.8062V13.1C1.80005 13.5774 1.98969 14.0352 2.32726 14.3728C2.66482 14.7104 3.12266 14.9 3.60005 14.9H14.4C14.8774 14.9 15.3353 14.7104 15.6728 14.3728C16.0104 14.0352 16.2 13.5774 16.2 13.1V7.8062Z" fill="black"/>
</svg>
