<svg width="430" height="310" viewBox="0 0 430 310" fill="none" xmlns="http://www.w3.org/2000/svg">
<path d="M95.268 85.3024L15.2314 137.669L94.0671 252.939L174.104 200.573L95.268 85.3024Z" fill="#F5F5F5"/>
<path d="M132.745 195.12L131.839 200.618L92.0488 195.009L92.9548 189.511L132.745 195.12Z" fill="#E0E0E0"/>
<path d="M112.707 175.508L118.414 176.31L112.086 214.628L106.373 213.819L112.707 175.508Z" fill="#E0E0E0"/>
<path d="M76.0913 126.808C76.1484 126.885 68.1305 132.236 58.1795 138.739C48.2285 145.241 40.1179 150.46 40.0608 150.377C40.0038 150.293 48.0217 144.948 57.9727 138.439C67.9237 131.929 75.9986 126.724 76.0913 126.808Z" fill="#E0E0E0"/>
<path d="M105.495 119.58C105.552 119.664 92.2126 128.483 75.706 139.283C59.1995 150.084 45.746 158.77 45.7032 158.693C45.6604 158.616 58.9712 149.783 75.4992 138.983C92.0271 128.183 105.438 119.496 105.495 119.58Z" fill="#E0E0E0"/>
<path d="M111.394 128.203C111.451 128.287 98.112 137.113 81.6054 147.914C65.0989 158.714 51.6454 167.401 51.6026 167.317C51.5598 167.233 64.8849 158.414 81.3986 147.607C97.9122 136.799 111.337 128.12 111.394 128.203Z" fill="#E0E0E0"/>
<path d="M117.294 136.834C117.351 136.918 104.011 145.744 87.5049 156.537C70.9984 167.331 57.5449 176.031 57.5449 175.947C57.5449 175.864 70.8201 167.038 87.3337 156.237C103.847 145.437 117.237 136.75 117.294 136.834Z" fill="#E0E0E0"/>
<path d="M123.171 145.465C123.228 145.548 109.889 154.367 93.3825 165.168C76.8759 175.968 63.4225 184.655 63.3868 184.571C63.3511 184.487 76.6833 175.668 93.2113 164.868C109.739 154.067 123.171 145.381 123.171 145.465Z" fill="#E0E0E0"/>
<path d="M362.901 162.541L295.683 206.52L361.89 303.326L429.108 259.347L362.901 162.541Z" fill="#F5F5F5"/>
<path d="M394.381 254.788L393.617 259.407L360.198 254.697L360.968 250.079L394.381 254.788Z" fill="#E0E0E0"/>
<path d="M377.553 238.315L382.347 238.992L377.033 271.17L372.232 270.494L377.553 238.315Z" fill="#E0E0E0"/>
<path d="M346.773 197.451C346.83 197.534 340.103 202.035 331.743 207.498C323.383 212.961 316.563 217.328 316.506 217.266C316.449 217.203 323.183 212.689 331.536 207.219C339.889 201.749 346.716 197.332 346.773 197.451Z" fill="#E0E0E0"/>
<path d="M371.49 191.346C371.547 191.43 360.355 198.853 346.523 207.916C332.692 216.98 321.371 224.278 321.314 224.194C321.257 224.11 332.449 216.687 346.281 207.616C360.112 198.546 371.412 191.262 371.49 191.346Z" fill="#E0E0E0"/>
<path d="M376.448 198.588C376.505 198.672 365.312 206.095 351.481 215.166C337.649 224.236 326.329 231.52 326.272 231.436C326.215 231.352 337.371 223.964 351.238 214.893C365.106 205.823 376.405 198.511 376.448 198.588Z" fill="#E0E0E0"/>
<path d="M381.398 205.823C381.455 205.907 370.256 213.331 356.432 222.401C342.607 231.471 331.279 238.755 331.222 238.671C331.165 238.587 342.358 231.171 356.189 222.094C370.021 213.017 381.348 205.753 381.398 205.823Z" fill="#E0E0E0"/>
<path d="M386.391 213.086C386.449 213.17 375.256 220.587 361.425 229.657C347.593 238.727 336.273 246.011 336.216 245.934C336.158 245.858 347.351 238.427 361.182 229.357C375.014 220.287 386.299 213.003 386.391 213.086Z" fill="#E0E0E0"/>
<path d="M256.559 89.5432L183.215 51.1751L125.454 156.805L198.797 195.173L256.559 89.5432Z" fill="#F5F5F5"/>
<path d="M186.245 162.126L181.594 163.682L169.781 131.748L174.439 130.185L186.245 162.126Z" fill="#E0E0E0"/>
<path d="M193.378 139.213L195.076 143.797L162.647 154.66L160.95 150.077L193.378 139.213Z" fill="#E0E0E0"/>
<path d="M216.418 92.0972C216.361 92.2018 208.928 88.4203 199.805 83.6549C190.681 78.8896 183.341 74.9336 183.398 74.829C183.455 74.7243 190.895 78.5059 200.019 83.2712C209.142 88.0365 216.476 91.9855 216.418 92.0972Z" fill="#E0E0E0"/>
<path d="M234.023 111.096C233.966 111.2 221.654 104.865 206.524 96.9532C191.395 89.0412 179.182 82.5386 179.239 82.434C179.297 82.3293 191.602 88.6575 206.731 96.5764C221.861 104.495 234.081 110.991 234.023 111.096Z" fill="#E0E0E0"/>
<path d="M229.701 119.001C229.644 119.105 217.332 112.777 202.202 104.858C187.072 96.9392 174.86 90.4436 174.917 90.3389C174.974 90.2343 187.279 96.5695 202.409 104.481C217.538 112.393 229.758 118.896 229.701 119.001Z" fill="#E0E0E0"/>
<path d="M225.378 126.906C225.321 127.01 213.009 120.682 197.879 112.77C182.749 104.858 170.537 98.3765 170.594 98.2509C170.651 98.1254 182.956 104.474 198.086 112.386C213.216 120.298 225.435 126.801 225.378 126.906Z" fill="#E0E0E0"/>
<path d="M221.055 134.811C220.998 134.915 208.686 128.587 193.556 120.675C178.426 112.763 166.207 106.261 166.271 106.156C166.335 106.051 178.633 112.379 193.763 120.291C208.893 128.203 221.112 134.706 221.055 134.811Z" fill="#E0E0E0"/>
<path opacity="0.2" d="M221.433 0H219.593V30.6851H221.433V0Z" fill="black"/>
<path d="M177.549 67.81H263.477C263.477 67.81 255.545 30.6991 219.864 30.6991C188.128 30.6991 177.549 67.81 177.549 67.81Z" fill="#FF725E"/>
<path d="M221.433 0H219.593V30.6851H221.433V0Z" fill="#FF725E"/>
<path d="M411.836 306.872C411.836 306.97 319.638 307.053 205.925 307.053C92.2126 307.053 0 306.991 0 306.872C0 306.753 92.1841 306.691 205.925 306.691C319.666 306.691 411.836 306.767 411.836 306.872Z" fill="#263238"/>
<path d="M22.7983 263.175C24.0043 263.26 25.1804 263.582 26.2565 264.121C27.3325 264.66 28.2865 265.406 29.0613 266.314C30.602 268.141 31.6929 270.289 32.2499 272.594C33.4555 277.003 32.7136 282.215 31.4296 286.604C26.5504 284.894 23.533 279.801 22.1563 277.122C20.0163 272.894 18.7394 263.963 22.7769 263.168" fill="#FF725E"/>
<path d="M38.4559 291.955C37.7232 290.844 37.3043 289.562 37.2416 288.241C37.179 286.92 37.4749 285.607 38.0992 284.434C38.7432 283.272 39.6173 282.247 40.6706 281.419C41.7239 280.592 42.9352 279.977 44.2339 279.613C45.4252 279.25 46.809 279.103 47.8434 279.78C48.3096 280.125 48.6728 280.586 48.8948 281.115C49.1169 281.644 49.1898 282.221 49.106 282.787C48.9187 283.921 48.4263 284.985 47.6793 285.871C45.3039 289.018 42.422 291.634 38.406 291.955" fill="#FF725E"/>
<path d="M38.9978 306.698C38.8919 306.401 38.8178 306.095 38.7766 305.784C38.6482 305.128 38.477 304.283 38.2701 303.272C37.6298 300.502 37.4516 297.648 37.7423 294.823C38.0786 291.983 39.1844 289.283 40.9451 287.001C41.4831 286.319 42.1035 285.703 42.7927 285.166C42.98 285.021 43.1752 284.886 43.3776 284.762C43.442 284.709 43.5142 284.667 43.5916 284.636C42.6893 285.39 41.865 286.229 41.1306 287.141C39.4627 289.425 38.4124 292.084 38.0776 294.871C37.621 298.123 38.1846 301.102 38.5127 303.244C38.6839 304.311 38.8265 305.177 38.905 305.777C38.9612 306.081 38.9922 306.389 38.9978 306.698Z" fill="#263238"/>
<path d="M24.3677 269.894C24.4491 270.004 24.5162 270.123 24.5674 270.249C24.6958 270.528 24.867 270.877 25.0667 271.317C25.5019 272.245 26.1082 273.591 26.8429 275.259C28.3124 278.601 30.2812 283.248 32.3356 288.425C34.39 293.602 36.1377 298.325 37.3289 301.765C37.9424 303.481 38.4203 304.876 38.7556 305.846C38.9054 306.307 39.0195 306.677 39.1123 306.963C39.1632 307.091 39.1991 307.224 39.2193 307.36C39.1469 307.242 39.0895 307.115 39.0481 306.984C38.9411 306.704 38.8055 306.342 38.6272 305.888L37.1221 301.841C35.8452 298.43 34.0619 293.713 32.0146 288.543C29.9673 283.373 28.0271 278.713 26.6147 275.35C25.9013 273.696 25.3521 272.349 24.9455 271.366C24.76 270.919 24.6102 270.563 24.4961 270.277C24.4425 270.153 24.3995 270.025 24.3677 269.894Z" fill="#263238"/>
<path d="M33.1986 296.944C31.7308 294.553 29.7024 292.539 27.2812 291.068C24.8599 289.596 22.1153 288.709 19.2743 288.48C17.8476 288.383 16.0928 288.62 15.4508 289.876C14.8088 291.132 15.6648 292.667 16.6492 293.685C18.7408 295.825 21.4332 297.312 24.3872 297.958C27.3412 298.603 30.4246 298.379 33.2485 297.313" fill="#FF725E"/>
<path d="M21.4712 292.262C21.7737 292.247 22.0768 292.259 22.3772 292.297C22.7288 292.315 23.079 292.355 23.4258 292.415C23.8324 292.492 24.3103 292.534 24.8096 292.674C25.3678 292.789 25.9181 292.938 26.4574 293.12C27.0823 293.317 27.6945 293.55 28.2907 293.818C29.662 294.419 30.9591 295.17 32.157 296.058C33.341 296.966 34.4133 298.005 35.3527 299.155C35.7583 299.656 36.1323 300.18 36.4726 300.725C36.7802 301.196 37.0612 301.683 37.3144 302.183C37.5287 302.591 37.7192 303.01 37.885 303.439C38.0281 303.757 38.1496 304.083 38.2488 304.416C38.3545 304.694 38.4333 304.982 38.4842 305.274C38.4058 305.274 38.0634 304.074 37.1004 302.288C36.8381 301.808 36.55 301.342 36.2372 300.893C35.8896 300.364 35.5134 299.854 35.1102 299.365C33.2444 297.11 30.865 295.313 28.1623 294.118C27.5417 293.853 26.9496 293.602 26.3718 293.42C25.8414 293.231 25.3008 293.07 24.7526 292.939C22.7552 292.402 21.4641 292.339 21.4712 292.262Z" fill="#263238"/>
<path d="M345.275 73.594C343.178 74.0615 342.158 76.4267 341.958 78.5198C341.758 80.6129 342.029 82.8316 341.13 84.7434C340.118 86.8923 337.699 88.4831 337.621 90.8483C337.571 92.2925 338.448 93.6391 338.406 95.0973C338.334 97.4695 335.866 99.2835 335.731 101.628C335.638 103.337 336.801 104.97 336.522 106.658C336.308 107.97 335.26 109.003 334.817 110.258C333.94 112.77 335.702 115.526 337.992 116.936C339.275 117.724 340.718 118.23 342.221 118.416C343.724 118.603 345.251 118.466 346.695 118.016C348.138 117.565 349.464 116.812 350.579 115.808C351.694 114.804 352.571 113.575 353.15 112.205C354.42 109.191 354.142 105.793 353.863 102.549C353.007 92.4274 352.37 82.2921 351.952 72.1428" fill="#263238"/>
<path d="M339.183 109.303C339.615 109.04 339.951 108.652 340.146 108.193C340.352 107.647 340.435 107.064 340.389 106.484C340.31 105.715 340.136 104.958 339.868 104.23C339.527 103.316 339.4 102.338 339.497 101.37C339.675 100.281 340.474 99.3882 341.195 98.5091C341.583 98.0788 341.907 97.5974 342.158 97.0788C342.409 96.5544 342.45 95.9567 342.272 95.4043C341.901 94.267 340.76 93.4298 340.239 92.1111C339.994 91.4583 339.954 90.7489 340.125 90.0738C340.287 89.4409 340.526 88.8294 340.838 88.2528C341.44 87.2143 341.919 86.1117 342.265 84.9666C342.764 82.7549 342.529 80.6408 342.871 78.9035C343.061 77.5121 343.692 76.214 344.676 75.1918C344.954 74.9164 345.271 74.6814 345.617 74.494C345.737 74.4332 345.864 74.3886 345.995 74.3615C345.548 74.6022 345.138 74.9028 344.776 75.2546C343.864 76.287 343.29 77.5629 343.128 78.9175C343.003 79.8429 342.936 80.7749 342.928 81.7083C342.926 82.8068 342.816 83.9026 342.6 84.9806C342.26 86.152 341.781 87.2806 341.173 88.3435C340.638 89.4389 340.146 90.7227 340.617 91.9227C341.088 93.1228 342.222 93.9531 342.657 95.2368C342.853 95.8711 342.805 96.5538 342.522 97.1555C342.244 97.7262 341.883 98.2549 341.452 98.7254C340.738 99.6045 339.961 100.442 339.789 101.419C339.689 102.345 339.802 103.282 340.118 104.16C340.372 104.91 340.531 105.689 340.588 106.477C340.624 107.084 340.514 107.691 340.267 108.249C340.114 108.599 339.868 108.903 339.554 109.128C339.442 109.208 339.317 109.267 339.183 109.303Z" fill="#455A64"/>
<path d="M333.605 125.845L327.185 143.986L300.335 145.381L295.855 155.149L323.889 157.94C325.213 158.472 326.634 158.735 328.066 158.715C329.498 158.694 330.91 158.39 332.218 157.821C333.526 157.252 334.703 156.429 335.677 155.403C336.651 154.376 337.402 153.167 337.885 151.849L345.367 131.42L333.605 125.845Z" fill="#B78876"/>
<path d="M389.109 297.013C389.109 297.013 369.436 235.88 369.015 233.899C368.637 232.099 376.148 188.108 377.104 176.687L350.518 177.657V177.915L339.219 178.529L349.334 303.502H361.567L360.355 262.023C367.902 281.831 378.716 302.023 378.716 302.023L389.109 297.013Z" fill="#B78876"/>
<path d="M360.854 276.906C360.854 276.529 360.704 263.007 360.704 263.007C360.554 263.817 356.017 251.272 356.124 250.511C356.181 250.114 360.854 276.906 360.854 276.906Z" fill="#A36957"/>
<path d="M355.611 244.567C355.548 244.815 355.522 245.071 355.533 245.327C355.493 246.024 355.493 246.723 355.533 247.42C355.533 247.86 355.597 248.334 355.654 248.851C355.711 249.367 355.789 249.911 355.911 250.476C356.164 251.711 356.5 252.927 356.916 254.118C357.801 256.651 358.785 258.863 359.477 260.468C359.805 261.165 360.091 261.828 360.333 262.358C360.421 262.605 360.541 262.84 360.69 263.056C360.652 262.815 360.58 262.58 360.476 262.358C360.312 261.898 360.062 261.235 359.763 260.419C359.135 258.786 358.193 256.553 357.316 254.049C356.901 252.875 356.56 251.677 356.296 250.462C356.167 249.904 356.082 249.367 356.003 248.865C355.925 248.362 355.868 247.888 355.832 247.469C355.746 246.604 355.711 245.906 355.689 245.418C355.703 245.132 355.676 244.846 355.611 244.567Z" fill="#A36957"/>
<path d="M349.105 304.137V303.014L361.639 302.476L361.674 307.116L360.904 307.165C357.459 307.36 343.392 307.932 341.095 307.256C338.52 306.502 349.105 304.137 349.105 304.137Z" fill="#455A64"/>
<path d="M361.839 306.837C361.767 306.842 361.696 306.842 361.625 306.837L361.011 306.879L358.743 306.977C356.831 307.053 354.185 307.123 351.267 307.137C348.35 307.151 345.696 307.102 343.777 307.046L341.516 306.956H340.895H340.681C340.752 306.95 340.824 306.95 340.895 306.956H341.516L343.784 306.998C345.696 306.998 348.342 307.053 351.26 307.039C354.177 307.025 356.831 306.977 358.743 306.928L361.011 306.872H361.839V306.837Z" fill="#263238"/>
<path d="M345.018 307.228C344.914 306.863 344.77 306.51 344.59 306.174C344.364 305.865 344.103 305.582 343.812 305.33C344.202 305.466 344.525 305.74 344.718 306.097C344.954 306.427 345.061 306.828 345.018 307.228Z" fill="#263238"/>
<path d="M348.713 305.393C348.713 305.393 348.506 305.204 348.321 304.925C348.135 304.646 348.021 304.402 348.057 304.381C348.092 304.36 348.264 304.563 348.449 304.842C348.635 305.121 348.749 305.372 348.713 305.393Z" fill="#263238"/>
<path d="M349.726 304.897C349.726 304.932 349.498 304.8 349.284 304.611C349.07 304.423 348.913 304.249 348.941 304.221C348.97 304.193 349.17 304.318 349.384 304.507C349.598 304.695 349.755 304.835 349.726 304.897Z" fill="#263238"/>
<path d="M350.361 303.711C350.151 303.787 349.927 303.815 349.705 303.795C349.486 303.823 349.264 303.802 349.056 303.732C349.263 303.657 349.485 303.629 349.705 303.649C349.926 303.619 350.15 303.641 350.361 303.711Z" fill="#263238"/>
<path d="M350.575 302.902C350.363 303.037 350.115 303.11 349.862 303.111C349.619 303.143 349.373 303.109 349.148 303.014C349.384 302.975 349.623 302.956 349.862 302.958C350.097 302.917 350.336 302.898 350.575 302.902Z" fill="#263238"/>
<path d="M348.292 304.325C348.026 304.374 347.753 304.374 347.486 304.325C347.198 304.291 346.914 304.23 346.637 304.144C346.466 304.098 346.301 304.032 346.145 303.949C346.05 303.894 345.979 303.807 345.945 303.704C345.932 303.646 345.937 303.586 345.958 303.53C345.98 303.474 346.017 303.426 346.067 303.39C346.264 303.297 346.481 303.247 346.7 303.245C346.92 303.243 347.137 303.289 347.336 303.379C347.535 303.469 347.712 303.602 347.852 303.766C347.993 303.931 348.094 304.124 348.15 304.332C348.164 304.401 348.164 304.473 348.15 304.542C348.069 304.29 347.943 304.053 347.779 303.844C347.589 303.635 347.341 303.485 347.065 303.411C346.75 303.312 346.407 303.337 346.109 303.481C345.988 303.572 346.038 303.718 346.174 303.802C346.319 303.879 346.472 303.942 346.63 303.99C346.898 304.077 347.173 304.144 347.45 304.193C347.985 304.304 348.292 304.304 348.292 304.325Z" fill="#263238"/>
<path d="M348.086 304.367C347.982 304.205 347.946 304.01 347.986 303.823C348.012 303.618 348.088 303.422 348.207 303.251C348.274 303.134 348.37 303.036 348.486 302.965C348.601 302.895 348.734 302.854 348.87 302.846C348.951 302.865 349.022 302.912 349.068 302.98C349.114 303.047 349.133 303.129 349.12 303.209C349.102 303.334 349.056 303.453 348.984 303.558C348.876 303.731 348.749 303.892 348.606 304.039C348.482 304.178 348.326 304.286 348.15 304.353C348.15 304.353 348.307 304.214 348.528 303.963C348.656 303.819 348.768 303.662 348.863 303.495C348.97 303.328 349.049 303.028 348.863 302.993C348.678 302.958 348.464 303.174 348.342 303.328C348.229 303.479 348.151 303.653 348.114 303.837C348.085 304.012 348.075 304.19 348.086 304.367Z" fill="#263238"/>
<path d="M361.574 303.502C361.574 303.502 361.218 303.502 360.654 303.537C359.92 303.623 359.226 303.908 358.65 304.361C358.073 304.814 357.638 305.415 357.394 306.098C357.209 306.621 357.195 306.977 357.166 306.97C357.137 306.963 357.166 306.879 357.166 306.725C357.184 306.501 357.227 306.278 357.294 306.063C357.521 305.348 357.958 304.715 358.55 304.242C359.149 303.777 359.877 303.497 360.64 303.439C360.877 303.411 361.116 303.411 361.353 303.439C361.429 303.451 361.504 303.472 361.574 303.502Z" fill="#263238"/>
<path d="M355.575 305.86C354.977 305.997 354.363 306.055 353.749 306.035C353.139 306.065 352.527 306.013 351.93 305.881C351.93 305.839 352.743 305.881 353.749 305.881C354.755 305.881 355.568 305.818 355.575 305.86Z" fill="#263238"/>
<path d="M358.015 305.839C358.015 305.839 357.951 306.007 357.865 306.188C357.78 306.37 357.737 306.537 357.694 306.53C357.651 306.523 357.63 306.342 357.73 306.125C357.83 305.909 357.986 305.804 358.015 305.839Z" fill="#263238"/>
<path d="M358.935 304.716C358.935 304.716 358.885 304.87 358.757 304.995C358.628 305.121 358.5 305.204 358.464 305.177C358.429 305.149 358.514 305.023 358.643 304.89C358.771 304.758 358.899 304.681 358.935 304.716Z" fill="#263238"/>
<path d="M360.248 304.2C360.248 304.242 360.076 304.242 359.891 304.304C359.705 304.367 359.577 304.465 359.541 304.437C359.506 304.409 359.613 304.242 359.841 304.165C360.069 304.088 360.262 304.158 360.248 304.2Z" fill="#263238"/>
<path d="M361.182 303.949C361.182 303.99 361.132 304.053 361.025 304.088C360.918 304.123 360.826 304.13 360.811 304.088C360.797 304.046 360.868 303.983 360.968 303.949C361.068 303.914 361.168 303.914 361.182 303.949Z" fill="#263238"/>
<path d="M378.466 303.056L377.995 302.03L389.202 296.525L391.178 300.711L390.464 301.067C387.404 302.623 374.814 308.777 372.431 309.084C369.799 309.453 378.466 303.056 378.466 303.056Z" fill="#455A64"/>
<path d="M391.221 300.411L391.035 300.523L390.486 300.802L388.46 301.807C386.748 302.637 384.366 303.76 381.705 304.946C379.044 306.132 376.605 307.144 374.835 307.863L372.731 308.693L372.16 308.909C372.095 308.939 372.025 308.96 371.954 308.972L372.146 308.881L372.71 308.637L374.793 307.765C376.555 307.025 378.98 305.993 381.641 304.807C384.301 303.621 386.691 302.518 388.417 301.709L390.457 300.753L391.021 300.495L391.221 300.411Z" fill="#263238"/>
<path d="M376.063 307.507C375.815 307.212 375.535 306.946 375.228 306.712C374.893 306.518 374.537 306.363 374.165 306.251C374.575 306.246 374.976 306.363 375.315 306.588C375.655 306.812 375.915 307.133 376.063 307.507Z" fill="#263238"/>
<path d="M378.638 304.353C378.638 304.353 378.367 304.27 378.081 304.088C377.796 303.907 377.589 303.732 377.61 303.697C377.632 303.663 377.881 303.781 378.167 303.963C378.452 304.144 378.659 304.318 378.638 304.353Z" fill="#263238"/>
<path d="M379.337 303.502C379.337 303.537 379.094 303.502 378.816 303.418C378.538 303.335 378.331 303.23 378.338 303.188C378.518 303.172 378.7 303.2 378.866 303.272C379.137 303.335 379.351 303.432 379.337 303.502Z" fill="#263238"/>
<path d="M379.437 302.162C379.437 302.204 379.201 302.351 378.873 302.504C378.684 302.615 378.472 302.685 378.252 302.707C378.252 302.665 378.488 302.518 378.809 302.365C379.001 302.254 379.215 302.185 379.437 302.162Z" fill="#263238"/>
<path d="M379.294 301.339C379.294 301.339 379.087 301.618 378.716 301.821C378.506 301.96 378.257 302.033 378.002 302.03C378.207 301.895 378.424 301.781 378.652 301.688C379.001 301.5 379.258 301.304 379.294 301.339Z" fill="#263238"/>
<path d="M377.831 303.558C377.614 303.704 377.373 303.812 377.118 303.879C376.838 303.959 376.551 304.017 376.262 304.053C376.087 304.075 375.909 304.075 375.734 304.053C375.624 304.045 375.521 303.995 375.449 303.914C375.416 303.864 375.398 303.806 375.398 303.746C375.398 303.687 375.416 303.629 375.449 303.579C375.666 303.322 375.967 303.146 376.301 303.083C376.636 303.019 376.982 303.071 377.282 303.23C377.459 303.321 377.614 303.447 377.739 303.6C377.824 303.711 377.86 303.781 377.853 303.788C377.677 303.596 377.467 303.438 377.232 303.321C376.981 303.205 376.701 303.164 376.426 303.202C376.263 303.219 376.104 303.267 375.96 303.343C375.815 303.42 375.688 303.524 375.584 303.649C375.506 303.781 375.584 303.893 375.777 303.914C375.941 303.928 376.105 303.928 376.269 303.914C376.553 303.886 376.834 303.837 377.111 303.767C377.517 303.656 377.831 303.537 377.831 303.558Z" fill="#263238"/>
<path d="M377.632 303.676C377.473 303.566 377.361 303.402 377.318 303.216C377.255 303.02 377.241 302.812 377.275 302.609C377.287 302.475 377.334 302.346 377.412 302.235C377.489 302.124 377.594 302.034 377.717 301.974C377.896 301.918 378.309 302.274 378.338 302.407C378.367 302.539 378.131 302.469 378.117 302.581C378.094 302.779 378.046 302.974 377.974 303.16C377.922 303.34 377.824 303.503 377.689 303.635C377.689 303.635 377.774 303.446 377.874 303.132C377.925 302.947 377.961 302.758 377.981 302.567C377.981 302.372 377.981 302.072 377.753 302.121C377.525 302.169 377.461 302.442 377.411 302.637C377.367 302.818 377.367 303.007 377.411 303.188C377.47 303.357 377.544 303.52 377.632 303.676Z" fill="#263238"/>
<path d="M389.58 297.474C389.58 297.474 389.238 297.592 388.752 297.879C388.118 298.249 387.602 298.786 387.262 299.427C386.931 300.075 386.791 300.8 386.855 301.521C386.898 302.079 387.033 302.4 387.005 302.414C386.959 302.344 386.923 302.269 386.898 302.19C386.827 301.977 386.777 301.757 386.748 301.535C386.646 300.791 386.778 300.036 387.125 299.368C387.473 298.7 388.021 298.151 388.695 297.795C388.897 297.686 389.11 297.597 389.33 297.53C389.41 297.499 389.494 297.48 389.58 297.474Z" fill="#263238"/>
<path d="M385.093 302.037C384.087 302.721 382.963 303.222 381.776 303.516C381.776 303.474 382.525 303.195 383.438 302.818C384.351 302.442 385.071 302.002 385.093 302.037Z" fill="#263238"/>
<path d="M387.312 301.039C387.347 301.039 387.312 301.214 387.312 301.416C387.312 301.618 387.312 301.786 387.312 301.8C387.312 301.814 387.169 301.646 387.169 301.416C387.169 301.186 387.276 301.018 387.312 301.039Z" fill="#263238"/>
<path d="M387.675 299.644C387.711 299.644 387.675 299.804 387.633 299.972C387.59 300.139 387.483 300.265 387.447 300.251C387.412 300.237 387.447 300.09 387.49 299.923C387.533 299.755 387.633 299.63 387.675 299.644Z" fill="#263238"/>
<path d="M388.66 298.618C388.66 298.66 388.517 298.723 388.374 298.855C388.232 298.988 388.153 299.127 388.118 299.113C388.082 299.1 388.118 298.904 388.275 298.744C388.432 298.583 388.653 298.618 388.66 298.618Z" fill="#263238"/>
<path d="M389.409 298.046C389.409 298.046 389.409 298.158 389.323 298.234C389.238 298.311 389.159 298.353 389.131 298.325C389.102 298.297 389.131 298.213 389.216 298.137C389.302 298.06 389.38 298.018 389.409 298.046Z" fill="#263238"/>
<path d="M375.377 156.035L373.294 131.127L383.994 131.315C383.994 131.315 384.487 127.638 382.91 119.587C381.94 114.647 378.58 111.619 374.807 109.819V109.749L374.479 109.665C371.372 108.301 368.055 107.455 364.663 107.161L351.502 107.307C351.502 107.307 341.451 106.051 335.909 113.091C333.769 115.791 327.127 134.273 327.127 134.273L342.928 141.711L341.451 131.462C341.451 131.462 341.751 138.892 342.721 141.23C343.256 142.541 344.861 146.616 344.861 146.616L344.654 158.909L375.377 156.035Z" fill="#FF725E"/>
<path d="M368.123 127.513L366.168 135.648H384.594L383.381 122.001L368.123 127.513Z" fill="#FF725E"/>
<path d="M384.594 135.648C383.789 135.503 382.973 135.424 382.154 135.411C380.642 135.327 378.588 135.25 376.248 135.264C373.908 135.278 371.847 135.376 370.334 135.488C369.516 135.515 368.702 135.613 367.902 135.781C368.719 135.844 369.539 135.844 370.356 135.781C371.861 135.732 373.922 135.676 376.248 135.669C378.573 135.662 380.635 135.669 382.147 135.704C382.963 135.749 383.781 135.73 384.594 135.648Z" fill="#263238"/>
<path d="M367.324 121.938C367.236 122.632 367.217 123.333 367.267 124.031C367.267 125.308 367.324 127.066 367.402 129.013C367.481 130.959 367.574 132.725 367.659 133.994C367.663 134.698 367.739 135.399 367.887 136.088C367.975 135.393 367.994 134.692 367.945 133.994C367.945 132.718 367.887 130.952 367.809 129.006C367.731 127.059 367.638 125.301 367.552 124.024C367.549 123.323 367.473 122.624 367.324 121.938Z" fill="#263238"/>
<g opacity="0.3">
<path d="M350.561 128.985C350.561 128.985 354.655 158.686 366.168 157.898C366.168 157.898 371.354 157.842 373.016 154.472V153.146L350.561 128.985Z" fill="black"/>
</g>
<g opacity="0.3">
<path d="M367.324 123.689L365.12 138.25L366.546 140.804L368.9 135.808L367.902 135.781L367.324 123.689Z" fill="black"/>
</g>
<path d="M344.797 146.63C344.66 146.412 344.554 146.178 344.483 145.932C344.305 145.479 344.069 144.816 343.77 143.986C343.055 141.822 342.467 139.621 342.008 137.392C341.55 135.162 341.259 132.903 341.137 130.631C341.095 129.759 341.08 129.055 341.095 128.538C341.076 128.286 341.093 128.033 341.145 127.785C341.202 127.785 341.244 128.859 341.394 130.576C341.595 132.826 341.921 135.065 342.371 137.281C342.899 139.876 343.534 142.199 344.019 143.867C344.248 144.641 344.44 145.304 344.597 145.848C344.695 146.1 344.762 146.363 344.797 146.63Z" fill="#263238"/>
<path d="M349.448 155.163C349.348 155.163 349.063 154.556 348.813 153.767C348.598 153.284 348.503 152.758 348.535 152.232C348.85 152.659 349.066 153.147 349.17 153.663C349.374 154.137 349.469 154.649 349.448 155.163Z" fill="#263238"/>
<path d="M351.038 155.051C350.499 153.652 350.476 152.112 350.974 150.697C351.03 151.422 351.03 152.15 350.974 152.874C351.052 153.597 351.073 154.325 351.038 155.051Z" fill="#263238"/>
<path d="M343.249 142.053C343.199 142.137 339.525 140.434 335.038 138.243C330.552 136.053 326.949 134.197 326.992 134.106C327.035 134.015 330.716 135.725 335.203 137.916C339.689 140.106 343.292 141.962 343.249 142.053Z" fill="#263238"/>
<path d="M349.726 109.714C349.804 106.184 349.826 102.472 349.826 102.472C349.826 102.472 345.196 101.6 344.39 95.6415C343.62 89.9622 345.774 76.629 345.774 76.629C352.536 74.1312 359.563 76.3988 364.192 81.7572L363.044 110.412C362.908 113.74 359.877 116.28 356.239 116.112C352.558 115.938 349.647 113.077 349.726 109.714Z" fill="#B78876"/>
<path d="M345.417 87.283C345.411 87.4786 345.481 87.6692 345.614 87.8157C345.747 87.9622 345.931 88.0537 346.131 88.0714C346.232 88.081 346.334 88.0703 346.431 88.0399C346.528 88.0096 346.617 87.9603 346.694 87.895C346.771 87.8297 346.833 87.7499 346.877 87.6602C346.922 87.5706 346.947 87.4731 346.951 87.3737C346.957 87.1789 346.887 86.9891 346.754 86.8437C346.621 86.6983 346.436 86.6083 346.238 86.5923C346.136 86.5772 346.032 86.5838 345.934 86.6116C345.835 86.6394 345.743 86.6877 345.665 86.7533C345.587 86.8189 345.525 86.9002 345.482 86.9916C345.439 87.0831 345.417 87.1825 345.417 87.283Z" fill="#263238"/>
<path d="M345.132 86.2853C345.225 86.383 345.845 85.9713 346.666 85.9992C347.486 86.0271 348.092 86.4457 348.192 86.3481C348.292 86.2504 348.15 86.1248 347.886 85.9225C347.528 85.6694 347.1 85.5305 346.659 85.5248C346.224 85.5086 345.796 85.631 345.439 85.8736C345.175 86.062 345.082 86.2364 345.132 86.2853Z" fill="#263238"/>
<path d="M353.913 87.7993C353.905 87.9953 353.975 88.1868 354.108 88.3338C354.241 88.4807 354.427 88.5717 354.627 88.5877C354.729 88.6029 354.833 88.5961 354.932 88.5679C355.032 88.5397 355.124 88.4908 355.202 88.4244C355.28 88.358 355.342 88.2759 355.384 88.1836C355.427 88.0913 355.448 87.9911 355.447 87.89C355.455 87.6947 355.385 87.504 355.252 87.3582C355.119 87.2124 354.933 87.1229 354.734 87.1086C354.632 87.0935 354.528 87.1001 354.429 87.1279C354.331 87.1557 354.239 87.204 354.161 87.2696C354.083 87.3352 354.021 87.4165 353.978 87.5079C353.935 87.5994 353.913 87.6988 353.913 87.7993Z" fill="#263238"/>
<path d="M353.856 86.8016C353.949 86.9062 354.57 86.4946 355.39 86.5155C356.21 86.5365 356.817 86.9621 356.924 86.8644C357.031 86.7667 356.874 86.6411 356.61 86.4458C356.258 86.186 355.83 86.0441 355.39 86.0411C354.954 86.0283 354.524 86.1504 354.163 86.3899C353.906 86.5783 353.813 86.7527 353.856 86.8016Z" fill="#263238"/>
<path d="M350.661 92.7949C350.223 92.6476 349.767 92.5562 349.305 92.5228C349.091 92.5228 348.892 92.446 348.863 92.3065C348.846 92.0884 348.901 91.8707 349.02 91.6855L349.691 90.1157C350.314 88.7815 350.827 87.4002 351.224 85.9853C350.494 87.2672 349.869 88.6041 349.355 89.9831C349.134 90.5343 348.913 91.0646 348.706 91.5669C348.568 91.8162 348.522 92.1048 348.578 92.3832C348.606 92.4589 348.651 92.5272 348.711 92.5828C348.77 92.6385 348.842 92.68 348.92 92.7042C349.038 92.7377 349.161 92.7565 349.284 92.76C349.739 92.8286 350.202 92.8403 350.661 92.7949Z" fill="#263238"/>
<path d="M349.826 102.472C352.68 102.584 355.509 101.92 358 100.553C358 100.553 355.925 104.579 349.868 103.874L349.826 102.472Z" fill="#A36957"/>
<path d="M356.538 84.4224C356.367 84.6806 355.725 84.5689 355.012 84.4224C354.299 84.2759 353.671 84.1573 353.585 83.8573C353.5 83.5573 354.249 83.1596 355.205 83.3479C356.16 83.5363 356.71 84.1991 356.538 84.4224Z" fill="#263238"/>
<path d="M348.214 83.2363C348.149 83.5363 347.465 83.648 346.68 83.6828C345.895 83.7177 345.203 83.6828 345.111 83.3759C345.018 83.0689 345.681 82.6363 346.63 82.5944C347.579 82.5526 348.278 82.9503 348.214 83.2363Z" fill="#263238"/>
<path d="M350.675 94.7554C350.585 94.7345 350.49 94.7438 350.406 94.7818C350.322 94.8197 350.253 94.8841 350.211 94.9647C350.17 95.0359 350.15 95.1162 350.15 95.1977C350.151 95.2792 350.174 95.359 350.216 95.4293C350.258 95.4995 350.319 95.5578 350.391 95.5983C350.463 95.6388 350.545 95.6601 350.628 95.6601C350.712 95.6601 350.793 95.6388 350.866 95.5983C350.938 95.5578 350.998 95.4995 351.04 95.4293C351.083 95.359 351.105 95.2792 351.106 95.1977C351.107 95.1162 351.086 95.0359 351.046 94.9647C350.994 94.871 350.912 94.7972 350.812 94.7553C350.712 94.7135 350.601 94.7061 350.496 94.7345" fill="#A36957"/>
<path d="M350.867 94.8392C350.867 94.8043 350.732 94.6019 350.368 94.6787C350.259 94.7064 350.16 94.7617 350.079 94.8388C349.999 94.9159 349.941 95.0123 349.911 95.1183C349.873 95.2518 349.876 95.3935 349.921 95.5253C349.965 95.657 350.049 95.7728 350.161 95.8578C350.28 95.9373 350.42 95.9799 350.564 95.9799C350.708 95.9799 350.848 95.9373 350.967 95.8578C351.062 95.7953 351.136 95.7076 351.182 95.605C351.227 95.5024 351.242 95.3892 351.224 95.2787C351.152 94.9089 350.874 94.8531 350.86 94.902C350.846 94.9508 350.96 95.0764 350.938 95.2927C350.934 95.3461 350.916 95.3976 350.886 95.4426C350.856 95.4876 350.815 95.5248 350.767 95.5508C350.712 95.5821 350.649 95.5985 350.585 95.5985C350.521 95.5985 350.459 95.5821 350.403 95.5508C350.354 95.5095 350.316 95.4563 350.293 95.3964C350.271 95.3365 350.264 95.2719 350.275 95.209C350.283 95.1538 350.305 95.1015 350.339 95.0565C350.372 95.0115 350.416 94.9752 350.468 94.9508C350.667 94.8322 350.846 94.888 350.867 94.8392Z" fill="#263238"/>
<path d="M361.425 88.7552C360.711 90.3878 358.942 91.6506 359.185 93.4158C359.342 94.5531 360.091 95.6136 359.948 96.7578C359.763 98.1532 358.243 99.1859 358.022 100.616C357.758 102.367 359.506 103.728 360.198 105.361C361.218 107.747 359.92 110.426 359.884 113.035C359.926 115.016 360.701 116.915 362.065 118.381C363.429 119.846 365.29 120.777 367.303 121.003C368.929 121.136 370.762 120.654 371.583 119.287C372.296 118.156 372.139 116.719 372.553 115.47C373.18 113.6 374.999 112.233 375.406 110.307C376.119 106.819 371.768 103.888 372.053 100.316C372.175 98.7882 373.138 97.4625 373.544 95.9834C373.803 95.0113 373.823 93.9931 373.602 93.012C373.382 92.031 372.927 91.115 372.274 90.3389C371.197 89.09 369.642 88.2458 368.708 86.9062C367.673 85.3643 367.638 83.4177 367.281 81.5967C366.802 79.3833 365.757 77.3248 364.244 75.6136C362.731 73.9024 360.799 72.5944 358.629 71.8117C356.458 71.0291 354.121 70.7975 351.834 71.1384C349.547 71.4794 347.386 72.3819 345.553 73.7615C345.553 73.7615 344.519 78.3593 349.348 79.1338C354.177 79.9082 356.41 79.0152 356.952 80.906C356.824 81.6849 356.887 82.4823 357.135 83.233C357.383 83.9836 357.809 84.6662 358.379 85.2248C360.348 87.3039 362.224 86.8574 361.425 88.7552Z" fill="#263238"/>
<path d="M369.093 120.647C368.945 120.652 368.796 120.638 368.651 120.605C368.233 120.533 367.822 120.423 367.424 120.278C365.951 119.725 364.659 118.792 363.686 117.577C363.004 116.739 362.469 115.796 362.103 114.787C361.686 113.637 361.466 112.427 361.453 111.207C361.439 109.863 361.611 108.522 361.967 107.223C362.161 106.537 362.4 105.864 362.68 105.207C362.975 104.553 363.234 103.885 363.458 103.205C363.654 102.534 363.654 101.824 363.458 101.153C363.249 100.494 362.979 99.8537 362.652 99.2417C362.321 98.6348 362.042 98.0024 361.817 97.3509C361.598 96.706 361.546 96.0177 361.667 95.3485C361.953 94.0368 362.766 93.06 363.251 92.0623C363.713 91.1387 363.934 90.1175 363.893 89.0901C363.828 87.5865 363.27 86.1432 362.302 84.9736C361.927 84.5639 361.524 84.1793 361.097 83.8224C361.597 84.0972 362.044 84.4563 362.416 84.8829C363.455 86.0508 364.068 87.5235 364.157 89.0691C364.216 90.1413 364 91.211 363.529 92.1809C363.037 93.2135 362.245 94.1973 362.003 95.3973C361.76 96.5974 362.338 97.8602 362.973 99.0742C363.319 99.7037 363.601 100.365 363.814 101.049C364.025 101.779 364.025 102.551 363.814 103.281C363.577 103.985 363.303 104.677 362.994 105.354C362.714 105.996 362.475 106.656 362.281 107.328C361.927 108.594 361.751 109.902 361.76 111.214C361.738 113.45 362.476 115.629 363.857 117.41C364.781 118.609 366.011 119.55 367.424 120.138C368.487 120.543 369.1 120.605 369.093 120.647Z" fill="#455A64"/>
<path d="M368.38 85.4411C368.032 85.5291 367.676 85.5806 367.317 85.5946C366.338 85.697 365.35 85.6712 364.378 85.5178C363.641 85.4111 362.934 85.1618 362.297 84.7844C361.66 84.407 361.106 83.9092 360.669 83.32C360.261 82.5747 359.936 81.7888 359.699 80.9757C359.394 80.1637 358.822 79.4739 358.072 79.0152C356.51 78.0454 354.677 77.9268 353.079 77.7384C351.605 77.6665 350.174 77.2296 348.92 76.4686C348.08 75.9243 347.474 75.0976 347.215 74.1452C347.153 73.8871 347.136 73.6205 347.165 73.3568C347.165 73.1754 347.208 73.0847 347.222 73.0847C347.231 73.4303 347.276 73.774 347.358 74.1103C347.653 75.0009 348.259 75.7615 349.07 76.2593C350.301 76.9616 351.69 77.3548 353.114 77.4035C354.712 77.5849 356.61 77.6756 358.279 78.7082C359.096 79.2099 359.718 79.9636 360.048 80.8502C360.272 81.6425 360.58 82.4096 360.968 83.1386C361.799 84.2534 363.044 85.005 364.435 85.2318C365.375 85.4027 366.333 85.466 367.288 85.4201C367.652 85.4001 368.017 85.4071 368.38 85.4411Z" fill="#455A64"/>
<path d="M366.611 79.7617C366.342 79.8496 366.059 79.8898 365.776 79.8803C364.446 79.8891 363.166 79.3882 362.209 78.4849C361.773 78.0569 361.401 77.5707 361.104 77.0407C360.462 75.9802 359.841 74.6755 358.507 74.1312C357.222 73.7095 355.853 73.5924 354.512 73.7894C353.381 73.9448 352.234 73.9448 351.103 73.7894C350.316 73.6826 349.575 73.3637 348.963 72.8684C348.805 72.7335 348.665 72.5787 348.549 72.4079C348.463 72.287 348.428 72.2242 348.442 72.2195C348.442 72.2195 348.642 72.4428 349.055 72.7568C349.665 73.1811 350.374 73.4497 351.117 73.5382C352.228 73.6607 353.35 73.6419 354.455 73.4824C355.854 73.2589 357.288 73.3788 358.628 73.8312C359.317 74.134 359.907 74.6169 360.333 75.2266C360.709 75.7706 361.055 76.3342 361.368 76.9151C361.649 77.4222 361.997 77.8913 362.402 78.3105C362.76 78.665 363.171 78.9638 363.622 79.1966C364.285 79.5354 365.015 79.7328 365.762 79.7757C366.311 79.7687 366.604 79.7268 366.611 79.7617Z" fill="#455A64"/>
<path d="M371.219 119.14C371.183 119.14 371.411 118.68 371.675 117.815C372.033 116.6 372.191 115.338 372.146 114.075C372.094 112.205 371.572 110.377 370.627 108.751C370.106 107.837 369.314 107.021 368.665 106.016C368.322 105.505 368.08 104.934 367.952 104.335C367.839 103.704 367.893 103.056 368.109 102.451C368.508 101.244 369.221 100.232 369.378 99.1231C369.535 98.0137 368.993 97.0299 368.451 96.102C368.171 95.6505 367.917 95.1847 367.688 94.7066C367.479 94.2429 367.342 93.7515 367.281 93.2484C367.214 92.3618 367.243 91.4708 367.367 90.5901C367.595 89.3452 367.477 88.0632 367.024 86.8783C366.822 86.4633 366.536 86.0929 366.183 85.7899C366.183 85.7899 366.218 85.7899 366.268 85.8318C366.353 85.8728 366.43 85.927 366.496 85.9922C366.776 86.2196 367.002 86.5026 367.16 86.8225C367.676 88.0175 367.837 89.3307 367.624 90.611C367.525 91.4753 367.513 92.3469 367.588 93.2135C367.764 94.1883 368.159 95.1128 368.744 95.9206C369.048 96.3921 369.308 96.8895 369.521 97.4067C369.746 97.965 369.819 98.5706 369.735 99.1649C369.564 100.386 368.829 101.419 368.458 102.556C368.264 103.104 368.212 103.692 368.308 104.265C368.433 104.819 368.66 105.347 368.979 105.821C369.585 106.791 370.406 107.621 370.926 108.577C371.882 110.257 372.392 112.145 372.41 114.068C372.433 115.355 372.23 116.636 371.811 117.856C371.697 118.187 371.558 118.508 371.397 118.819C371.354 118.934 371.294 119.042 371.219 119.14Z" fill="#455A64"/>
<path d="M342.165 249.144C342.165 249.144 337.357 204.602 337.079 188.143C336.8 171.684 344.647 155.442 344.647 155.442L375.377 154.193C375.377 154.193 381.455 170.889 381.562 177.915C381.776 191.548 377.86 205.007 378.309 215.821L379.336 249.172" fill="#263238"/>
<path d="M380.371 194.381C380.21 194.517 380.041 194.643 379.864 194.758L379.586 194.946L379.286 195.232C379.022 195.456 378.783 195.706 378.573 195.979C377.582 197.165 376.861 199.293 376.169 201.937C375.816 203.404 375.294 204.827 374.614 206.179C374.407 206.549 374.169 206.902 373.901 207.233C373.772 207.4 373.651 207.581 373.501 207.742L373.03 208.202C372.356 208.819 371.573 209.31 370.719 209.654C369 210.393 367.053 210.742 365.284 211.614C363.471 212.568 362.071 214.128 361.339 216.01C360.469 217.901 359.912 219.882 359.199 221.738C358.486 223.594 357.523 225.366 355.989 226.496C354.523 227.493 352.781 228.031 350.996 228.038C349.341 228.136 347.807 228.087 346.43 228.289C345.191 228.415 344.007 228.853 342.992 229.559C342.251 230.126 341.695 230.892 341.394 231.764C341.203 232.314 341.161 232.903 341.273 233.473C341.358 233.864 341.465 234.052 341.444 234.059C341.329 233.884 341.247 233.69 341.202 233.487C341.051 232.905 341.071 232.294 341.259 231.722C341.542 230.807 342.101 229.997 342.864 229.399C343.904 228.631 345.135 228.149 346.43 228.003C347.857 227.78 349.376 227.808 351.01 227.703C352.743 227.692 354.432 227.167 355.853 226.196C357.295 224.964 358.359 223.365 358.928 221.577C359.641 219.742 360.162 217.754 361.068 215.828C361.836 213.87 363.299 212.247 365.191 211.258C367.031 210.365 368.979 210.023 370.655 209.312C371.476 208.979 372.229 208.507 372.881 207.916L373.33 207.477C373.473 207.323 373.594 207.149 373.722 206.988C373.974 206.671 374.196 206.333 374.386 205.977C375.069 204.643 375.598 203.239 375.962 201.79C376.676 199.153 377.453 196.997 378.502 195.804C378.71 195.532 378.95 195.284 379.215 195.065C379.329 194.967 379.429 194.869 379.529 194.792L379.821 194.611C380 194.524 380.183 194.447 380.371 194.381Z" fill="#FAFAFA"/>
<path d="M380.556 173.771C380.589 173.967 380.603 174.165 380.599 174.364C380.597 174.94 380.525 175.513 380.385 176.073C379.771 178.114 378.564 179.937 376.911 181.32C375.82 182.301 374.624 183.164 373.344 183.894C371.968 184.69 370.448 185.45 368.886 186.315C367.245 187.176 365.717 188.228 364.335 189.448C362.917 190.824 361.75 192.426 360.882 194.185C360.008 195.969 359.009 197.692 357.894 199.342C357.327 200.11 356.671 200.813 355.939 201.435C355.218 202.035 354.425 202.548 353.578 202.963C352.045 203.699 350.448 204.299 348.806 204.756C347.279 205.216 345.852 205.628 344.611 206.151C343.485 206.59 342.413 207.151 341.416 207.826C340.665 208.335 339.991 208.943 339.411 209.633C338.926 210.231 338.521 210.888 338.206 211.586C338.256 211.393 338.323 211.204 338.405 211.021C338.639 210.494 338.939 209.997 339.297 209.542C339.866 208.823 340.539 208.188 341.294 207.658C342.296 206.96 343.375 206.375 344.511 205.914C345.886 205.366 347.288 204.889 348.713 204.484C350.332 204.016 351.907 203.414 353.421 202.684C354.224 202.274 354.978 201.778 355.668 201.204C356.372 200.591 357.003 199.903 357.551 199.153C358.651 197.511 359.64 195.801 360.511 194.032C361.406 192.233 362.613 190.6 364.078 189.204C365.485 187.965 367.042 186.901 368.715 186.036C370.284 185.178 371.804 184.432 373.18 183.643C374.457 182.937 375.652 182.1 376.747 181.145C378.386 179.804 379.603 178.035 380.257 176.045C380.44 175.3 380.54 174.537 380.556 173.771Z" fill="#FAFAFA"/>
<path d="M337.235 190.474C337.207 190.431 337.185 190.383 337.171 190.334C337.118 190.2 337.072 190.062 337.036 189.923C336.913 189.367 336.938 188.791 337.107 188.248C337.506 186.853 339.083 185.06 341.622 184.173C342.892 183.748 344.326 183.476 345.824 183.113C347.068 182.911 348.245 182.422 349.256 181.685C350.267 180.948 351.084 179.986 351.638 178.878C352.043 178.065 352.398 177.228 352.7 176.373C353.258 174.516 354.016 172.722 354.962 171.022C356.045 169.35 357.69 168.1 359.613 167.484C361.362 166.929 363.147 166.486 364.955 166.159C366.569 165.856 368.132 165.334 369.599 164.61C370.842 163.915 371.913 162.963 372.738 161.819C373.956 160.167 374.651 158.202 374.735 156.168C374.738 155.421 374.688 154.675 374.585 153.935C374.801 154.66 374.9 155.413 374.878 156.168C374.85 158.246 374.179 160.268 372.952 161.965C372.117 163.147 371.022 164.131 369.749 164.847C368.263 165.598 366.675 166.141 365.034 166.459C363.242 166.791 361.474 167.236 359.741 167.791C357.895 168.383 356.316 169.584 355.276 171.189C354.345 172.866 353.597 174.634 353.043 176.464C352.735 177.334 352.37 178.185 351.951 179.01C351.529 179.803 350.991 180.532 350.353 181.173C349.101 182.291 347.559 183.051 345.895 183.371C344.383 183.748 342.956 183.985 341.708 184.39C339.233 185.213 337.663 186.908 337.242 188.262C337.07 188.784 337.023 189.338 337.107 189.881C337.167 190.074 337.21 190.273 337.235 190.474Z" fill="#FAFAFA"/>
<path d="M377.917 228.15C377.946 228.295 377.963 228.442 377.967 228.589C377.981 229.012 377.935 229.435 377.831 229.845C377.383 231.358 376.435 232.683 375.135 233.613C374.267 234.289 373.307 234.843 372.282 235.259C371.19 235.713 369.985 236.076 368.715 236.459C367.397 236.836 366.107 237.302 364.856 237.855C363.556 238.462 362.39 239.313 361.425 240.36C360.383 241.42 359.484 242.585 358.486 243.618C357.531 244.618 356.421 245.466 355.197 246.13C353.115 247.241 350.786 247.835 348.414 247.86C346.825 247.877 345.246 247.619 343.748 247.1C343.342 246.963 342.946 246.797 342.564 246.604C342.425 246.548 342.293 246.475 342.172 246.388C342.316 246.427 342.456 246.475 342.593 246.534C342.984 246.698 343.384 246.843 343.791 246.967C345.286 247.425 346.848 247.64 348.414 247.602C350.733 247.543 353.004 246.938 355.033 245.837C356.219 245.18 357.294 244.349 358.222 243.374C359.199 242.355 360.091 241.197 361.154 240.108C362.176 239.023 363.407 238.146 364.777 237.527C366.048 236.972 367.356 236.506 368.694 236.132C369.949 235.755 371.147 235.434 372.26 234.973C373.256 234.575 374.191 234.047 375.042 233.404C376.32 232.521 377.274 231.258 377.76 229.803C377.865 229.258 377.918 228.705 377.917 228.15Z" fill="#FAFAFA"/>
<path d="M374.414 135.676L368.465 135.815C368.236 136.989 367.781 138.109 367.124 139.116C362.131 130.673 358.3 119.37 357.344 114.828C357.487 114.375 357.651 113.873 357.858 113.314C358.006 112.467 357.979 111.598 357.779 110.761C357.608 109.749 357.323 108.389 357.237 107.761C356.973 105.835 356.652 105.535 355.967 105.751C355.04 106.051 356.353 111.145 355.589 111.256C355.176 111.312 354.676 109.568 354.534 108.137C354.391 106.707 353.721 102.298 353.243 102.005C352.529 101.572 351.909 102.256 352.094 103.679C352.28 105.102 352.501 109.428 351.73 109.491C350.96 109.554 350.304 102.242 350.304 102.242C350.304 102.242 350.425 100.651 349.526 100.686C347.914 100.756 349.177 108.458 349.312 109.191C349.412 109.693 348.599 109.791 348.499 109.24C348.399 108.689 348.028 101.935 346.359 101.991C345.089 101.991 347.336 108.333 346.623 109.798C345.909 111.263 345.424 104.83 344.219 104.914C343.769 104.949 343.434 105.033 344.262 108.668C345.054 111.556 346.007 114.4 347.115 117.187C349.027 127.269 357.416 159.523 370.562 153.621C377.924 150.314 380.906 135.676 380.906 135.676H374.414Z" fill="#B78876"/>
<path d="M349.055 109.679C349.112 109.693 349.171 109.693 349.227 109.679C349.313 109.654 349.387 109.599 349.435 109.525C349.483 109.45 349.503 109.362 349.491 109.275C349.491 108.842 349.405 108.214 349.305 107.398C349.138 106.414 349.028 105.422 348.977 104.426C348.977 103.84 348.977 103.212 349.013 102.549C349.023 102.212 349.059 101.876 349.12 101.544C349.177 101.23 349.391 100.846 349.64 100.909H349.683C349.933 100.909 350.133 101.091 350.211 101.384C350.299 101.687 350.333 102.004 350.311 102.319C350.458 104.273 350.713 106.217 351.074 108.144C351.131 108.403 351.188 108.668 351.274 108.933C351.312 109.068 351.36 109.201 351.417 109.331C351.453 109.402 351.494 109.472 351.538 109.54C351.57 109.591 351.614 109.634 351.666 109.665C351.718 109.697 351.777 109.716 351.837 109.721C351.941 109.71 352.04 109.669 352.12 109.603C352.2 109.537 352.258 109.45 352.287 109.351C352.348 109.215 352.394 109.072 352.422 108.926C352.478 108.645 352.516 108.36 352.537 108.075C352.602 106.912 352.585 105.746 352.487 104.586C352.396 104.007 352.372 103.419 352.415 102.835C352.441 102.582 352.567 102.35 352.765 102.186C352.811 102.159 352.862 102.143 352.914 102.137C352.967 102.131 353.021 102.135 353.072 102.151C353.132 102.165 353.19 102.189 353.243 102.221C353.279 102.247 353.306 102.284 353.321 102.326C353.546 102.891 353.711 103.478 353.813 104.077C353.942 104.691 354.049 105.326 354.149 105.961C354.249 106.596 354.341 107.237 354.42 107.886C354.481 108.556 354.591 109.22 354.748 109.875C354.832 110.209 354.939 110.538 355.069 110.858C355.142 111.038 355.243 111.205 355.368 111.354C355.417 111.416 355.482 111.463 355.556 111.49C355.631 111.517 355.712 111.523 355.789 111.507C355.862 111.484 355.926 111.443 355.978 111.388C356.029 111.333 356.065 111.266 356.082 111.193C356.166 110.837 356.193 110.47 356.16 110.105C356.16 109.756 356.117 109.407 356.082 109.072C356.032 108.486 355.975 107.907 355.953 107.335C355.935 107.054 355.935 106.772 355.953 106.491C355.968 106.366 355.999 106.244 356.046 106.128C356.061 106.09 356.083 106.054 356.11 106.023H356.203C356.674 105.835 356.831 106.477 356.959 106.993C357.088 107.51 357.138 108.096 357.252 108.647C357.437 109.742 357.68 110.838 357.801 111.884C357.883 112.385 357.864 112.897 357.744 113.391C357.573 113.894 357.401 114.389 357.237 114.884V114.933V114.975C358.073 118.403 359.138 121.773 360.426 125.064C361.553 128.043 362.687 130.645 363.679 132.739C364.67 134.832 365.569 136.471 366.183 137.574L366.896 138.823C366.973 138.971 367.066 139.112 367.174 139.241C367.114 139.086 367.04 138.937 366.953 138.795L366.24 137.518C365.655 136.395 364.813 134.727 363.843 132.634C362.873 130.541 361.774 127.938 360.676 124.959C359.419 121.673 358.375 118.313 357.551 114.898V114.996C357.715 114.507 357.879 114.012 358.051 113.517C358.199 112.973 358.228 112.405 358.136 111.849C358.008 110.754 357.772 109.693 357.587 108.591C357.48 108.047 357.409 107.489 357.295 106.916C357.287 106.623 357.237 106.331 357.145 106.051C357.063 105.881 356.925 105.743 356.752 105.661C356.569 105.602 356.372 105.602 356.189 105.661H356.075C356.014 105.68 355.958 105.71 355.911 105.751C355.831 105.817 355.77 105.901 355.732 105.995C355.667 106.146 355.626 106.307 355.611 106.47C355.59 106.772 355.59 107.075 355.611 107.377C355.611 107.963 355.697 108.549 355.747 109.135C355.747 109.477 355.804 109.833 355.818 110.147C355.846 110.462 355.829 110.779 355.768 111.089C355.768 111.159 355.711 111.145 355.768 111.179L355.725 111.138C355.634 111.024 355.562 110.896 355.511 110.761C355.387 110.459 355.284 110.149 355.204 109.833C355.048 109.197 354.94 108.551 354.883 107.9C354.807 107.244 354.715 106.596 354.605 105.954C354.505 105.312 354.391 104.684 354.263 104.056C354.155 103.417 353.973 102.792 353.721 102.193C353.672 102.093 353.595 102.008 353.5 101.949C353.416 101.902 353.328 101.864 353.236 101.837C353.134 101.811 353.028 101.805 352.924 101.819C352.82 101.834 352.72 101.868 352.629 101.921C352.482 102.028 352.359 102.164 352.269 102.321C352.178 102.477 352.121 102.649 352.101 102.828C352.055 103.145 352.055 103.467 352.101 103.784C352.101 104.084 352.173 104.377 352.194 104.67C352.293 105.811 352.315 106.958 352.258 108.103C352.242 108.374 352.206 108.645 352.151 108.912C352.131 109.037 352.095 109.158 352.044 109.275C352.026 109.321 351.999 109.363 351.966 109.4C351.966 109.463 351.916 109.4 351.923 109.484C351.923 109.414 351.923 109.484 351.923 109.393C351.892 109.346 351.863 109.297 351.837 109.247C351.788 109.135 351.745 109.01 351.702 108.891C351.623 108.64 351.566 108.382 351.509 108.13C351.137 106.22 350.868 104.292 350.703 102.353C350.725 102.003 350.684 101.651 350.582 101.314C350.535 101.138 350.439 100.979 350.304 100.853C350.234 100.787 350.151 100.736 350.06 100.702C349.97 100.669 349.873 100.654 349.776 100.658H349.819C349.698 100.641 349.575 100.659 349.464 100.71C349.354 100.76 349.261 100.842 349.198 100.944C349.092 101.111 349.019 101.295 348.984 101.488C348.924 101.834 348.891 102.184 348.884 102.535C348.884 103.233 348.884 103.84 348.884 104.433C348.952 105.435 349.083 106.432 349.277 107.419C349.398 108.228 349.491 108.856 349.533 109.282C349.547 109.356 349.534 109.433 349.496 109.499C349.459 109.565 349.399 109.617 349.327 109.644C349.113 109.665 349.048 109.672 349.055 109.679Z" fill="#A36957"/>
<path d="M302.596 145.283C301.204 145.254 299.814 145.412 298.466 145.751C294.778 146.7 288.422 150.467 288.158 155.121H292.781C292.781 155.121 290.191 160.507 290.947 160.005C292.923 158.707 296.847 154.807 296.847 154.807L302.596 145.283Z" fill="#B78876"/>
<path d="M365.605 64.1889C365.498 64.1889 365.084 60.4632 364.67 55.8165C364.257 51.1697 364 47.444 364.1 47.444C364.2 47.444 364.62 51.1697 365.034 55.8165C365.448 60.4632 365.705 64.1889 365.605 64.1889Z" fill="#263238"/>
<path d="M385.871 47.7301C385.949 47.7859 382.832 52.2163 378.901 57.6235C374.971 63.0307 371.711 67.3914 371.625 67.3077C371.54 67.224 374.664 62.8214 378.595 57.4142C382.525 52.007 385.785 47.6742 385.871 47.7301Z" fill="#263238"/>
<path d="M394.288 67.81C394.288 67.9077 390.664 68.724 386.156 69.631C381.648 70.5381 377.967 71.1939 377.945 71.0962C377.924 70.9985 381.562 70.1822 386.077 69.2752C390.593 68.3682 394.238 67.7124 394.288 67.81Z" fill="#263238"/>
<path d="M151.705 163.64L126.453 290.483L123.171 307.088L291.518 306.293C299.079 306.258 305.785 299.693 308.203 289.939L338.063 170.191C339.911 162.789 335.859 155.086 330.124 155.093L159.694 155.267C155.985 155.26 152.661 158.693 151.705 163.64Z" fill="#FF725E"/>
<g opacity="0.5">
<path d="M151.705 163.64L126.453 290.483L123.171 307.088L291.518 306.293C299.079 306.258 305.785 299.693 308.203 289.939L338.063 170.191C339.911 162.789 335.859 155.086 330.124 155.093L159.694 155.267C155.985 155.26 152.661 158.693 151.705 163.64Z" fill="black"/>
</g>
<path d="M275.39 281.873L257.556 141.348C256.843 135.592 252.142 131.294 246.599 131.315L207.509 131.434C206.056 131.45 204.622 131.755 203.294 132.331C201.966 132.907 200.771 133.741 199.783 134.783L181.237 154.088L72.5247 154.66C65.8835 154.695 60.7761 160.849 61.6535 167.756L78.21 297.634C78.9233 303.383 83.6241 307.674 89.1525 307.667L278.65 307.298C299.75 307.723 301.769 301.632 301.769 301.632C277.544 306.872 275.39 281.908 275.39 281.873Z" fill="#FF725E"/>
<g opacity="0.5">
<path d="M193.677 253.77L187.286 260.481L138.066 217.168L144.457 210.456L193.677 253.77Z" fill="white"/>
<path d="M184.611 208.97L191.673 215.186L147.139 261.968L140.07 255.751L184.611 208.97Z" fill="white"/>
</g>
<path d="M302.446 72.4079C302.215 72.3127 302.017 72.1553 301.874 71.9539C301.731 71.7525 301.65 71.5155 301.64 71.2707L301.354 64.7959C301.344 64.5948 301.382 64.394 301.465 64.2097C301.548 64.0253 301.674 63.8624 301.832 63.7338C301.991 63.6052 302.178 63.5144 302.378 63.4687C302.579 63.4229 302.788 63.4235 302.988 63.4703C303.54 63.5869 304.111 63.5919 304.666 63.4851C305.22 63.3784 305.746 63.162 306.212 62.8493C306.641 62.5837 307.01 62.235 307.296 61.8246C307.582 61.4142 307.779 60.9509 307.874 60.4632C307.939 59.9694 307.902 59.4679 307.764 58.9885C307.627 58.5091 307.393 58.0616 307.075 57.6724C306.741 57.2295 306.321 56.8556 305.839 56.5718C305.356 56.2881 304.821 56.1002 304.265 56.0188C303.142 55.9578 302.032 56.269 301.113 56.9021C300.193 57.5352 299.52 58.4531 299.2 59.5073C299.094 59.8268 298.865 60.0937 298.562 60.2525C298.26 60.4112 297.906 60.4497 297.575 60.3597C297.244 60.2698 296.961 60.0585 296.786 59.7697C296.61 59.4809 296.555 59.137 296.632 58.8096C297.118 57.1515 298.172 55.7073 299.618 54.7201C301.064 53.7328 302.813 53.2625 304.572 53.3884C305.487 53.5077 306.369 53.8057 307.164 54.2648C307.959 54.7238 308.652 55.3346 309.201 56.0607C309.735 56.7336 310.126 57.5046 310.35 58.3279C310.575 59.1512 310.628 60.0102 310.507 60.8539C310.344 61.6964 310.008 62.4975 309.517 63.2079C309.026 63.9183 308.392 64.5228 307.653 64.9843C306.583 65.689 305.333 66.0877 304.044 66.1355L304.265 71.1311C304.273 71.3506 304.225 71.5686 304.124 71.7648C304.023 71.9611 303.873 72.1293 303.688 72.2538C303.503 72.3784 303.289 72.4553 303.066 72.4773C302.842 72.4994 302.617 72.4659 302.41 72.38L302.446 72.4079Z" fill="#FF725E"/>
<path d="M304.4 75.0592C304.415 75.2699 304.366 75.4802 304.259 75.6636C304.152 75.8469 303.991 75.995 303.798 76.0891C303.605 76.1832 303.387 76.2192 303.173 76.1923C302.959 76.1655 302.758 76.0771 302.595 75.9384C302.432 75.7996 302.315 75.6168 302.258 75.4129C302.202 75.2091 302.208 74.9934 302.277 74.7932C302.346 74.593 302.474 74.4173 302.645 74.2883C302.816 74.1593 303.022 74.0828 303.238 74.0685C303.381 74.058 303.524 74.0755 303.66 74.1197C303.797 74.164 303.922 74.2343 304.03 74.3264C304.139 74.4185 304.227 74.5308 304.29 74.6565C304.354 74.7823 304.391 74.9192 304.4 75.0592Z" fill="#FF725E"/>
<path d="M279.527 63.2749C279.557 63.1369 279.579 62.9971 279.591 62.8563C279.591 62.5493 279.669 62.1586 279.726 61.6074C279.797 60.9307 279.913 60.2594 280.076 59.598C280.169 59.2073 280.219 58.7747 280.361 58.3352C280.504 57.8956 280.647 57.4212 280.803 56.9398C281.629 54.5545 282.833 52.3108 284.37 50.2906C286.385 47.6747 288.939 45.5021 291.867 43.9136C293.534 42.9945 295.309 42.2775 297.153 41.7786C299.143 41.2626 301.193 41 303.252 40.9972C304.337 40.9802 305.421 41.0361 306.498 41.1646C307.047 41.2205 307.589 41.36 308.138 41.4507C308.694 41.5438 309.242 41.6743 309.779 41.8414C312.027 42.456 314.166 43.4043 316.121 44.6532C320.466 47.41 323.776 51.4754 325.551 56.2351C326.506 58.7847 326.99 61.4805 326.978 64.1959C327.007 66.9933 326.501 69.7714 325.487 72.387L325.166 73.1824L325.123 73.287L325.166 73.3917C326.956 77.4174 328.732 81.3734 330.409 85.2038L330.708 84.8689L320.008 80.8571L319.88 80.8083L319.773 80.906C316.942 83.5885 313.477 85.5444 309.686 86.5993C306.447 87.4715 303.056 87.6619 299.736 87.158C296.416 86.6541 293.243 85.4672 290.426 83.6759C288.119 82.1962 286.086 80.3442 284.413 78.1989C281.988 75.0675 280.417 71.3845 279.848 67.4961C279.762 66.7984 279.691 66.2123 279.626 65.682C279.562 65.1518 279.626 64.7192 279.591 64.3494C279.555 63.9796 279.591 63.7354 279.591 63.5331C279.626 63.5278 279.659 63.5096 279.681 63.4821C279.703 63.4545 279.714 63.4197 279.712 63.3846C279.709 63.3495 279.693 63.3168 279.666 63.2928C279.64 63.2689 279.605 63.2556 279.569 63.2556C279.533 63.2556 279.499 63.2689 279.472 63.2928C279.446 63.3168 279.43 63.3495 279.427 63.3846C279.424 63.4197 279.435 63.4545 279.458 63.4821C279.48 63.5096 279.512 63.5278 279.548 63.5331C279.548 63.7354 279.548 64.0075 279.548 64.3494C279.548 64.6913 279.548 65.1657 279.548 65.696C279.548 66.2262 279.669 66.8332 279.741 67.524C279.975 69.2021 280.384 70.8526 280.96 72.4498C281.777 74.559 282.876 76.5532 284.227 78.3803C285.907 80.5638 287.955 82.4514 290.284 83.9619C293.135 85.7981 296.353 87.0201 299.724 87.547C303.095 88.0738 306.542 87.8935 309.836 87.0179C313.673 85.9521 317.181 83.9775 320.051 81.2688L319.816 81.3176L330.516 85.3504L331.051 85.5527L330.815 85.0155C329.118 81.1851 327.363 77.236 325.579 73.2033V73.4056L325.908 72.5893C326.948 69.9167 327.466 67.0766 327.434 64.2169C327.456 61.4437 326.973 58.6889 326.007 56.0816C324.195 51.2271 320.811 47.0843 316.37 44.2834C314.367 43.0053 312.172 42.0403 309.865 41.4228C309.319 41.2538 308.761 41.1256 308.195 41.0391C307.639 40.9414 307.09 40.8018 306.533 40.753C305.443 40.6205 304.344 40.5599 303.245 40.5716C301.153 40.5803 299.072 40.857 297.053 41.3949C295.185 41.9139 293.386 42.6494 291.696 43.5857C288.739 45.2131 286.169 47.4368 284.156 50.1092C282.624 52.1629 281.436 54.4429 280.639 56.863C280.49 57.3654 280.347 57.8468 280.219 58.2584C280.105 58.679 280.015 59.1052 279.947 59.5352C279.795 60.2011 279.694 60.8776 279.648 61.5586C279.605 62.0958 279.577 62.5075 279.555 62.8145C279.525 62.9661 279.516 63.1209 279.527 63.2749Z" fill="#263238"/>
</svg>
