<svg width="18" height="19" viewBox="0 0 18 19" fill="none" xmlns="http://www.w3.org/2000/svg">
<path fill-rule="evenodd" clip-rule="evenodd" d="M9.13636 0.5L3.95455 5.56667H1.09091C0.325732 5.96232 0.198537 6.24906 0 6.76667V17.3C0.368505 18.2031 0.709717 18.4415 1.5 18.5H6.54545V14.6333C7.77273 12.6333 9.95455 12.3667 11.3182 14.6333L11.4545 18.5H16.9091C17.5069 18.196 17.797 17.9824 18 17.3V7.03333C17.8499 6.25712 17.5982 5.95191 16.7727 5.7L14.0455 5.56667L9.13636 0.5ZM9.13636 4.76667C12 4.76667 12.2727 9.43333 9.13636 9.56667C5.86673 9.70567 5.59091 4.76667 9.13636 4.76667ZM4.09091 7.96667H2.45455V9.56667H4.09091V7.96667ZM15.5455 7.96667H13.9091V9.56667H15.5455V7.96667ZM15.5455 11.1667H13.9091V12.7667H15.5455V11.1667ZM15.5455 14.3667H13.9091V15.9667H15.5455V14.3667ZM4.09091 11.1667H2.45455V12.7667H4.09091V11.1667ZM4.09091 14.3667H2.45455V15.9667H4.09091V14.3667Z" fill="black"/>
</svg>
