<svg width="86" height="86" viewBox="0 0 86 86" fill="none" xmlns="http://www.w3.org/2000/svg">
<path d="M17.2211 28.741C13.4142 25.4973 14.8076 17.8226 21.4015 17.8226C27.9953 17.8226 29.3887 25.4973 25.5818 28.741M17.2211 28.741C18.2412 29.6102 19.6346 30.1613 21.4015 30.1613C23.1683 30.1613 24.5618 29.6102 25.5818 28.741M17.2211 28.741L10.2539 37.0161V45.2419C18.7128 49.2231 23.5876 49.3299 32.549 45.2419V37.0161L25.5818 28.741" stroke="black" stroke-width="3"/>
<path d="M60.4179 64.3862C56.611 61.1425 58.0044 53.4677 64.5982 53.4677C71.192 53.4677 72.5855 61.1424 68.7786 64.3862M60.4179 64.3862C61.438 65.2554 62.8314 65.8065 64.5982 65.8065C66.3651 65.8065 67.7585 65.2554 68.7786 64.3862M60.4179 64.3862L53.4507 72.6613V80.8871C61.9095 84.8683 66.7844 84.9751 75.7458 80.8871V72.6613L68.7786 64.3862" stroke="black" stroke-width="3"/>
<path d="M40.8033 28.7903C40.8033 39.2965 32.14 47.8548 21.4016 47.8548C10.6633 47.8548 2 39.2965 2 28.7903C2 18.2842 10.6633 9.7258 21.4016 9.7258C32.14 9.7258 40.8033 18.2842 40.8033 28.7903Z" stroke="black" stroke-width="3"/>
<path d="M84.0001 64.4355C84.0001 74.9416 75.3367 83.5 64.5984 83.5C53.8601 83.5 45.1968 74.9416 45.1968 64.4355C45.1968 53.9293 53.8601 45.371 64.5984 45.371C75.3367 45.371 84.0001 53.9293 84.0001 64.4355Z" stroke="black" stroke-width="3"/>
<path d="M75.6394 4.79839C75.6394 6.59713 74.1505 8.09677 72.2623 8.09677C70.3741 8.09677 68.8853 6.59713 68.8853 4.79839C68.8853 2.99964 70.3741 1.5 72.2623 1.5C74.1505 1.5 75.6394 2.99964 75.6394 4.79839Z" stroke="black" stroke-width="3"/>
<path d="M71.4592 26.7339C71.4592 28.5326 69.9703 30.0323 68.0821 30.0323C66.1939 30.0323 64.7051 28.5326 64.7051 26.7339C64.7051 24.9351 66.1939 23.4355 68.0821 23.4355C69.9703 23.4355 71.4592 24.9351 71.4592 26.7339Z" stroke="black" stroke-width="3"/>
<path d="M26.8688 80.2016C26.8688 82.0004 25.38 83.5 23.4918 83.5C21.6036 83.5 20.1147 82.0004 20.1147 80.2016C20.1147 78.4029 21.6036 76.9032 23.4918 76.9032C25.38 76.9032 26.8688 78.4029 26.8688 80.2016Z" stroke="black" stroke-width="3"/>
<path d="M8.7541 62.379C8.7541 64.1778 7.26523 65.6774 5.37705 65.6774C3.48887 65.6774 2 64.1778 2 62.379C2 60.5803 3.48887 59.0807 5.37705 59.0807C7.26523 59.0807 8.7541 60.5803 8.7541 62.379Z" stroke="black" stroke-width="3"/>
<path d="M37.4263 41.129L49.2705 51.4113" stroke="black" stroke-width="3"/>
<path d="M40.2129 20.5645L68.7785 6.85483" stroke="black" stroke-width="3"/>
<path d="M68.082 31.5323V44.5565" stroke="black" stroke-width="3"/>
<path d="M12.3443 47.2984L7.46729 58.2661" stroke="black" stroke-width="3"/>
<path d="M27.6719 78.1452L45.7866 71.2903" stroke="black" stroke-width="3"/>
</svg>
