<svg width="86" height="85" viewBox="0 0 86 85" fill="none" xmlns="http://www.w3.org/2000/svg">
<path d="M16.8758 44.3514L17.8231 41.1818H20.6608L21.6081 44.3514C22.1953 46.3163 24.3851 47.3254 26.2255 46.3506L29.1817 44.7847L31.1377 46.9879L29.929 49.0442C28.8197 50.9314 29.7477 53.4535 31.8964 54.0322L34.2419 54.664V57.6997L31.8964 58.3314C29.7476 58.9101 28.8197 61.4322 29.929 63.3195L31.1377 65.3758L29.1817 67.5789L26.2255 66.0131C24.3851 65.0382 22.1953 66.0474 21.6081 68.0123L20.6608 71.1818H17.8231L16.8758 68.0123C16.2886 66.0474 14.0988 65.0382 12.2583 66.0131L9.30221 67.5789L7.34623 65.3758L8.55491 63.3195C9.66418 61.4322 8.73624 58.9101 6.58753 58.3314L4.24194 57.6997V54.664L6.58753 54.0322C8.73624 53.4535 9.66418 50.9314 8.55491 49.0442L7.34623 46.9879L9.30221 44.7847L12.2583 46.3506C14.0988 47.3254 16.2886 46.3163 16.8758 44.3514Z" stroke="black" stroke-width="2"/>
<circle cx="18.9678" cy="55.9545" r="6.5" stroke="black" stroke-width="2"/>
<rect x="38.5161" y="33.4545" width="10.3387" height="39.7273" stroke="black" stroke-width="2"/>
<rect x="54.9677" y="36.5455" width="10.3387" height="36.6364" stroke="black" stroke-width="2"/>
<rect x="71.4194" y="19.5454" width="10.3387" height="53.6364" stroke="black" stroke-width="2"/>
<line x1="0.5" y1="79.3636" x2="85.5" y2="79.3636" stroke="black" stroke-width="2"/>
<line x1="14.2097" y1="84" x2="85.5" y2="84" stroke="black" stroke-width="2"/>
<circle cx="43.7581" cy="20.5" r="2.5" stroke="black" stroke-width="2"/>
<circle cx="60.2097" cy="26.6818" r="2.5" stroke="black" stroke-width="2"/>
<path d="M81.3871 -9.10428e-06L71.145 3.84515L79.3658 11.9539L81.3871 -9.10428e-06ZM62.9055 25.4295L76.5805 7.8118L75.1566 6.40732L61.4816 24.025L62.9055 25.4295Z" fill="black"/>
<line y1="-1" x2="12.5899" y2="-1" transform="matrix(0.871152 0.491013 -0.405454 0.914115 45.7419 20.0909)" stroke="black" stroke-width="2"/>
<line y1="-1" x2="13.3447" y2="-1" transform="matrix(-0.719144 0.694861 -0.605269 -0.796021 41.629 21.6364)" stroke="black" stroke-width="2"/>
<line x1="0.5" y1="84" x2="8.72581" y2="84" stroke="black" stroke-width="2"/>
</svg>
