<svg width="15" height="13" viewBox="0 0 15 13" fill="none" xmlns="http://www.w3.org/2000/svg">
<g id="butoon-icon">
<path id="Vector" fill-rule="evenodd" clip-rule="evenodd" d="M7.4637 0.469135C7.63248 0.300411 7.86135 0.205627 8.1 0.205627C8.33865 0.205627 8.56753 0.300411 8.7363 0.469135L14.1363 5.86914C14.305 6.03791 14.3998 6.26679 14.3998 6.50544C14.3998 6.74408 14.305 6.97296 14.1363 7.14173L8.7363 12.5417C8.56656 12.7057 8.33922 12.7964 8.10324 12.7943C7.86726 12.7923 7.64153 12.6976 7.47466 12.5308C7.3078 12.3639 7.21314 12.1382 7.21109 11.9022C7.20904 11.6662 7.29976 11.4389 7.4637 11.2691L11.3274 7.40543H0.9C0.661305 7.40543 0.432387 7.31061 0.263604 7.14183C0.0948211 6.97305 0 6.74413 0 6.50544C0 6.26674 0.0948211 6.03782 0.263604 5.86904C0.432387 5.70026 0.661305 5.60544 0.9 5.60544H11.3274L7.4637 1.74173C7.29498 1.57296 7.20019 1.34408 7.20019 1.10544C7.20019 0.866787 7.29498 0.63791 7.4637 0.469135Z" fill="white"/>
</g>
</svg>
