<svg width="86" height="87" viewBox="0 0 86 87" fill="none" xmlns="http://www.w3.org/2000/svg">
<path d="M42.9618 18.9615L42.9619 27.4615H40.3016C34.192 28.1154 34.192 35.3077 40.3016 35.9615H42.9618V46.4231H40.3016C34.192 47.0769 34.192 53.6154 40.3016 54.2692H42.9618L42.9619 62.1154M42.9618 18.9615C46.0571 18.9615 48.7602 19.3688 51.0953 20.1098M42.9618 18.9615C38.2083 18.9615 34.3775 19.922 31.383 21.5769M51.7317 62.1154V65.3846M51.7317 62.1154H42.9619M51.7317 62.1154C57.8841 56.6708 61.9152 48.7588 62.8995 41.1923M34.192 62.1154V65.3846M34.192 62.1154H42.9619M34.192 62.1154C28.0125 56.6708 23.9758 48.7588 22.9946 41.1923M51.7317 65.3846V67.3462H50.3825M51.7317 65.3846H53.7555M34.192 65.3846V67.3462H35.5412M34.192 65.3846H32.1682M35.5412 67.3462V76.5H36.8904V78.4615H38.2396M35.5412 67.3462H50.3825M50.3825 67.3462V76.5H49.0333V78.4615H47.6841M38.2396 78.4615V81.7308H39.5888V83.6923H40.938M38.2396 78.4615H47.6841M47.6841 78.4615V81.7308H46.3349V83.6923H44.9857M40.938 83.6923V85H44.9857V83.6923M40.938 83.6923H44.9857M22.9946 41.1923L5.89683 37.2692M22.9946 41.1923H27.4841M62.8995 41.1923H56.4921V44.4615C55.8175 49.0385 48.3968 49.0385 47.7222 44.4615V41.1923H27.4841M62.8995 41.1923C63.1601 39.1892 63.2072 37.2102 63.0236 35.3077M51.0953 20.1098C53.9273 16.1972 55.666 14.6958 59.1905 13.0769L80.1032 14.3846M51.0953 20.1098C56.2398 22.6374 58.0762 24.7571 60.0331 29.4231M80.1032 14.3846V11.7692H84.8254M80.1032 14.3846V32.0385M85.5 33.3462H80.1032V32.0385M80.1032 32.0385H75.381L66.6111 35.3077H63.0236M63.0236 35.3077H57.1667C54.4683 34.6538 54.4683 30.0769 57.1667 29.4231H60.0331M62.8995 29.4231H60.0331M5.89683 37.2692V39.2308H0.5M5.89683 37.2692V20.2692M0.5 17.6538H5.89683V20.2692M5.89683 20.2692L24.1111 18.9615C27.3479 19.3465 28.9411 19.914 31.383 21.5769M31.383 21.5769C26.1156 24.488 23.4361 29.5477 22.8746 35.3077H27.4841C30.1825 36.6154 30.1825 39.2308 27.4841 41.1923" stroke="black" stroke-width="3"/>
<path d="M49.746 7.19231L53.119 3.26923M41.6508 5.88462V0M34.2301 7.19231L30.1825 3.26923" stroke="black" stroke-width="3"/>
</svg>
