<svg width="94" height="91" viewBox="0 0 94 91" fill="none" xmlns="http://www.w3.org/2000/svg">
<path d="M19.5571 57.6154L20.3135 45.8906C20.4036 44.4942 21.8631 43.6196 23.137 44.1986L47.1314 55.1052C47.6808 55.3549 48.3136 55.3432 48.8534 55.0733L71.2042 43.8979C72.5097 43.2452 74.052 44.1654 74.0976 45.6243L74.4772 57.7719C74.4919 58.2422 74.3402 58.7066 74.0407 59.0695C61.0681 74.7892 35.9816 74.8101 20.1262 59.1323C19.7248 58.7354 19.5207 58.1787 19.5571 57.6154Z" fill="black"/>
<path d="M89 36.5L83.5 39L82.5 66C77.5594 69.1117 80.4955 73.8707 86 82.5C91.5154 74.664 94 69.5 89 66V36.5Z" fill="black" stroke="black"/>
<path d="M3.19303 24.3016L46.0891 1.4845C46.6606 1.18053 47.3438 1.17192 47.9228 1.46139L91.6931 23.3465C93.1146 24.0573 93.1792 26.0621 91.8064 26.8629L48.0001 52.4166C47.3814 52.7775 46.6171 52.78 45.9961 52.4233L3.13601 27.8015C1.77241 27.0182 1.80463 25.0401 3.19303 24.3016Z" fill="black" stroke="black"/>
</svg>
